<svg
    xmlns="http://www.w3.org/2000/svg"
    viewBox="0 0 38.1 50"
>
    <path
        d="M9.2,17.9c1.8,1.3,4.4,0.9,5.7-0.9l4.8-6.6C21,8.6,20.6,6,18.8,4.7
       c-1.8-1.3-4.4-0.9-5.7,0.9l-4.8,6.6C7,14,7.4,16.5,9.2,17.9z
       M31,8.6c-1.8-1.3-4.4-0.9-5.7,0.9L6.1,35.8
       c-1.3,1.8-0.9,4.4,0.9,5.7c1.8,1.3,4.4,0.9,5.7-0.9l19.1-26.3
       C33.2,12.5,32.8,9.9,31,8.6z
       M7.4,6.5c1.3-1.8,0.9-4.4-0.9-5.7
       C4.7-0.5,2.1-0.2,0.8,1.7C-0.5,3.5-0.2,6,1.7,7.4
       C3.5,8.7,6,8.3,7.4,6.5z
       M36.4,42.6c-1.8-1.3-4.4-0.9-5.7,0.9
       c-1.3,1.8-0.9,4.4,0.9,5.7c1.8,1.3,4.4,0.9,5.7-0.9
       C38.6,46.5,38.2,44,36.4,42.6z
       M28.9,32.2c-1.8-1.3-4.4-0.9-5.7,0.9l-4.8,6.6
       c-1.3,1.8-0.9,4.4,0.9,5.7c1.8,1.3,4.4,0.9,5.7-0.9l4.8-6.6
       C31.1,36.1,30.7,33.5,28.9,32.2z"
    />
</svg>