<svg xmlns="http://www.w3.org/2000/svg" xmlns:xlink="http://www.w3.org/1999/xlink"
    viewBox="0,0,256,256" width="50px" height="50px" fill-rule="nonzero">
    <g fill-rule="nonzero" stroke="none" stroke-width="1" stroke-linecap="butt"
        stroke-linejoin="miter" stroke-miterlimit="10" stroke-dasharray="" stroke-dashoffset="0"
        font-family="none" font-weight="none" font-size="none" text-anchor="none"
        style="mix-blend-mode: normal">
        <g transform="scale(5.12,5.12)">
            <path
                d="M8,2.00195c-0.55226,0.00006 -0.99994,0.44774 -1,1v6c0.00006,0.55226 0.44774,0.99994 1,1h21.50195c3.04445,0 5.49805,2.4544 5.49805,5.5c0,3.04657 -2.45456,5.5 -5.49805,5.5h-8.50195c-0.55226,0.00006 -0.99994,0.44774 -1,1v5.97266c-0.00005,0.21038 0.06625,0.41541 0.18945,0.58594l13.77734,19.02734c0.18768,0.25954 0.48831,0.41348 0.80859,0.41406h8.4082c0.37597,-0.0002 0.72006,-0.21125 0.89066,-0.54628c0.17061,-0.33503 0.1389,-0.73744 -0.08207,-1.04161l-12.73438,-17.58984c6.60521,-0.87224 11.74219,-6.48192 11.74219,-13.32227c0,-7.44106 -6.05791,-13.5 -13.49805,-13.5zM8,13.00195c-0.55226,0.00006 -0.99994,0.44774 -1,1v33c0.00006,0.55226 0.44774,0.99994 1,1h8.00195c0.55226,-0.00006 0.99994,-0.44774 1,-1v-33c-0.00006,-0.55226 -0.44774,-0.99994 -1,-1z"></path>
        </g>
    </g>
</svg>